# xmcd CD database file
#
# Track frame offsets:
#	150
#	10098
#	19521
#	32469
#	42867
#	52740
#	64638
#	74361
#	83859
#	95907
#
# Disc length: 1421 seconds
#
# Revision: 0
# Processed by: cddbd v1.5.2PL0 Copyright (c) Steve Scherf et al.
# Submitted via: CDex 1.70beta2
#
DISCID=71058b0a
DTITLE=HH - Cty - Hee Haw - guest stars 
DYEAR=1900
DGENRE=Country
TTITLE0=Hot Dog - Buck Owens
TTITLE1=You Are the One - George Jones
TTITLE2=I'm A Free Man Now - Faron young
TTITLE3=Big City - Wynn Stewart 
TTITLE4=Wiase Guys - Ferlin Husky
TTITLE5=I Heard the Juke Box Playing - faron Young
TTITLE6=Rhythm and Booze - Buck Owens
TTITLE7=Wondering - Sonny James
TTITLE8=Wishfull Thinking - Wynn Stewart
TTITLE9=Guilty Feeling - Ferlin Husky
EXTD=
EXTT0=
EXTT1=
EXTT2=
EXTT3=
EXTT4=
EXTT5=
EXTT6=
EXTT7=
EXTT8=
EXTT9=
PLAYORDER=
